<svg width="512" height="512" viewBox="0 0 512 512" fill="none" xmlns="http://www.w3.org/2000/svg">
<g clip-path="url(#clip0_1_5090)">
<rect width="512" height="512" fill="#087443"/>
<path d="M383 301.5H130C124.437 293.523 113.527 291.838 88 291H425C396.577 292.18 387.524 294.514 383 301.5Z" fill="white"/>
<rect x="77" y="283" width="358" height="9" rx="4.5" fill="white"/>
<mask id="mask0_1_5090" style="mask-type:alpha" maskUnits="userSpaceOnUse" x="131" y="158" width="250" height="250">
<circle cx="256" cy="283" r="125" fill="white"/>
</mask>
<g mask="url(#mask0_1_5090)">
<rect width="288" height="119" transform="matrix(1 0 0 -1 116 277)" fill="white"/>
</g>
<path d="M264 155.699H248C247.871 150.798 246.374 147.848 241 142.199C252.488 131.104 259.004 131.268 270.5 142.699C265.873 147.425 264.392 150.257 264 155.699Z" fill="white"/>
<path d="M280 172C335.553 199.643 354.115 221.946 359 277H370C361.838 216.297 340.035 194.835 280 172Z" fill="#087443"/>
<path d="M347.283 388.862L386.254 407.034L356.76 465.552L318.542 442.214L347.283 388.862Z" fill="white"/>
<path d="M320.169 428.077L341.392 386.115L330.969 381.255C326.53 376.728 324.466 373.589 321.843 366.517C321.875 357.185 321.71 351.328 320.868 339.029C319.472 331.401 322.05 326.579 331.011 317.278C333.267 312.609 332.859 310.474 327.625 307.975C318.107 307.215 313.907 308.964 308.144 315.442C302.691 325.641 299.846 331.673 295.254 343.085C287.323 350.444 281.229 351.545 268.373 349.859C248.274 342.814 237.638 338.185 220.792 327.671C203.443 313.205 193.879 306.142 179.102 308.231C169.54 310.477 169.774 313.201 176.507 319.71C186.116 322.517 192.115 326.41 203.577 336.194L252.736 383.392L320.169 428.077Z" fill="white"/>
<circle cx="338" cy="439" r="4" fill="#087443"/>
<path d="M206.285 66C205.849 58.4279 208.004 54.0508 216.285 46C210.187 48.8074 207.409 51.6676 203.785 59.5C200.546 68.442 201.526 74.5703 208.285 87.5C221.813 105.095 224.774 112.649 218.785 120.5C226.187 113.862 226.519 108.588 219.285 96C209.877 82.2622 207.392 75.8611 206.285 66Z" fill="white"/>
<path d="M241.285 66C240.849 58.4279 243.004 54.0508 251.285 46C245.187 48.8074 242.409 51.6676 238.785 59.5C235.546 68.442 236.526 74.5703 243.285 87.5C256.813 105.095 259.774 112.649 253.785 120.5C261.187 113.862 261.519 108.588 254.285 96C244.877 82.2622 242.392 75.8611 241.285 66Z" fill="white"/>
<path d="M276.285 66C275.849 58.4279 278.004 54.0508 286.285 46C280.187 48.8074 277.409 51.6676 273.785 59.5C270.546 68.442 271.526 74.5703 278.285 87.5C291.813 105.095 294.774 112.649 288.785 120.5C296.187 113.862 296.519 108.588 289.285 96C279.877 82.2622 277.392 75.8611 276.285 66Z" fill="white"/>
<path d="M225.328 248.634C238.797 249.62 245.836 246.987 257.621 237.666L257.001 222.779C248.032 217.14 242.188 220.257 231.146 230.536C215.432 240.259 211.984 239.265 214.986 226.011C204.604 237.394 207.526 242.23 225.328 248.634Z" fill="#087443"/>
<path d="M288.672 248.634C275.203 249.62 268.164 246.987 256.379 237.666L257.001 222.779C265.969 217.14 271.812 220.257 282.854 230.536C298.568 240.259 302.016 239.265 299.014 226.011C309.396 237.394 306.474 242.23 288.672 248.634Z" fill="#087443"/>
</g>
<defs>
<clipPath id="clip0_1_5090">
<rect width="512" height="512" fill="white"/>
</clipPath>
</defs>
</svg>
