<svg width="303" height="88" viewBox="0 0 303 88" fill="none" xmlns="http://www.w3.org/2000/svg">
<rect width="302.688" height="88" fill="white"/>
<path d="M56.7615 50.0344H23.06C22.319 48.9719 20.8658 48.7473 17.4653 48.6357H62.3562C58.57 48.7929 57.3642 49.1038 56.7615 50.0344Z" fill="#087443"/>
<rect x="16" y="47.5701" width="47.6882" height="1.19887" rx="0.599433" fill="#087443"/>
<mask id="mask0_15977_36248" style="mask-type:alpha" maskUnits="userSpaceOnUse" x="23" y="30" width="34" height="35">
<circle cx="39.8443" cy="47.5701" r="16.6509" fill="white"/>
</mask>
<g mask="url(#mask0_15977_36248)">
<rect width="38.3637" height="15.8517" transform="matrix(1 0 0 -1 21.1953 46.7708)" fill="#087443"/>
</g>
<path d="M40.91 30.6126H38.7786C38.7614 29.9598 38.562 29.5669 37.8462 28.8143C39.3765 27.3364 40.2444 27.3583 41.7758 28.8809C41.1594 29.5105 40.9621 29.8877 40.91 30.6126Z" fill="#087443"/>
<path d="M43.041 32.7839C50.4411 36.4662 52.9137 39.4371 53.5644 46.7707H55.0297C53.9425 38.6846 51.0382 35.8258 43.041 32.7839Z" fill="white"/>
<path d="M52.0035 61.6716L57.1948 64.0924L53.2659 71.8874L48.1751 68.7786L52.0035 61.6716Z" fill="#087443"/>
<path d="M48.3918 66.8954L51.2188 61.3057L49.8304 60.6583C49.2392 60.0554 48.9642 59.6372 48.6147 58.6951C48.619 57.452 48.5971 56.6718 48.4849 55.0336C48.2989 54.0175 48.6424 53.3752 49.836 52.1362C50.1366 51.5143 50.0822 51.2298 49.385 50.897C48.1171 50.7957 47.5576 51.0287 46.79 51.8916C46.0636 53.2502 45.6846 54.0537 45.073 55.5738C44.0165 56.5541 43.2047 56.7007 41.4922 56.4762C38.8149 55.5377 37.3981 54.9211 35.154 53.5206C32.843 51.5936 31.5691 50.6528 29.6006 50.931C28.3268 51.2303 28.358 51.5931 29.255 52.4601C30.535 52.8341 31.334 53.3526 32.8608 54.656L39.4092 60.943L48.3918 66.8954Z" fill="#087443"/>
<circle cx="50.7672" cy="68.3505" r="0.532829" fill="white"/>
<path d="M33.2217 18.6641C33.1636 17.6555 33.4507 17.0724 34.5537 16C33.7415 16.374 33.3714 16.755 32.8887 17.7983C32.4572 18.9894 32.5878 19.8058 33.4881 21.5281C35.2901 23.8719 35.6846 24.8781 34.8867 25.9239C35.8728 25.0397 35.917 24.3371 34.9533 22.6604C33.7002 20.8304 33.3691 19.9777 33.2217 18.6641Z" fill="#087443"/>
<path d="M37.8838 18.6641C37.8257 17.6555 38.1128 17.0724 39.2158 16C38.4036 16.374 38.0335 16.755 37.5508 17.7983C37.1193 18.9894 37.2499 19.8058 38.1502 21.5281C39.9522 23.8719 40.3467 24.8781 39.5489 25.9239C40.5349 25.0397 40.5791 24.3371 39.6155 22.6604C38.3623 20.8304 38.0312 19.9777 37.8838 18.6641Z" fill="#087443"/>
<path d="M42.5464 18.6641C42.4883 17.6555 42.7754 17.0724 43.8784 16C43.0662 16.374 42.6961 16.755 42.2134 17.7983C41.7819 18.9894 41.9125 19.8058 42.8128 21.5281C44.6148 23.8719 45.0093 24.8781 44.2114 25.9239C45.1975 25.0397 45.2417 24.3371 44.2781 22.6604C43.0249 20.8304 42.6938 19.9777 42.5464 18.6641Z" fill="#087443"/>
<path d="M35.7585 42.9922C37.5527 43.1236 38.4904 42.7729 40.0602 41.5312L39.9775 39.5482C38.7829 38.7971 38.0044 39.2123 36.5335 40.5814C34.4403 41.8767 33.981 41.7442 34.3809 39.9787C32.9979 41.495 33.3871 42.1391 35.7585 42.9922Z" fill="white"/>
<path d="M44.1964 42.9922C42.4022 43.1236 41.4645 42.7729 39.8947 41.5312L39.9775 39.5482C41.1722 38.7971 41.9504 39.2123 43.4214 40.5814C45.5146 41.8767 45.9739 41.7442 45.574 39.9787C46.957 41.495 46.5678 42.1391 44.1964 42.9922Z" fill="white"/>
<path d="M89.224 41.384C87.4533 41.384 85.8107 41.096 84.296 40.52C82.8027 39.944 81.5013 39.1333 80.392 38.088C79.304 37.0427 78.4507 35.816 77.832 34.408C77.2347 33 76.936 31.464 76.936 29.8C76.936 28.136 77.2347 26.6 77.832 25.192C78.4507 23.784 79.3147 22.5573 80.424 21.512C81.5333 20.4667 82.8347 19.656 84.328 19.08C85.8213 18.504 87.4427 18.216 89.192 18.216C90.9627 18.216 92.584 18.504 94.056 19.08C95.5493 19.656 96.84 20.4667 97.928 21.512C99.0373 22.5573 99.9013 23.784 100.52 25.192C101.139 26.5787 101.448 28.1147 101.448 29.8C101.448 31.464 101.139 33.0107 100.52 34.44C99.9013 35.848 99.0373 37.0747 97.928 38.12C96.84 39.144 95.5493 39.944 94.056 40.52C92.584 41.096 90.9733 41.384 89.224 41.384ZM89.192 36.968C90.1947 36.968 91.112 36.7973 91.944 36.456C92.7973 36.1147 93.544 35.624 94.184 34.984C94.824 34.344 95.3147 33.5867 95.656 32.712C96.0187 31.8373 96.2 30.8667 96.2 29.8C96.2 28.7333 96.0187 27.7627 95.656 26.888C95.3147 26.0133 94.824 25.256 94.184 24.616C93.5653 23.976 92.8293 23.4853 91.976 23.144C91.1227 22.8027 90.1947 22.632 89.192 22.632C88.1893 22.632 87.2613 22.8027 86.408 23.144C85.576 23.4853 84.84 23.976 84.2 24.616C83.56 25.256 83.0587 26.0133 82.696 26.888C82.3547 27.7627 82.184 28.7333 82.184 29.8C82.184 30.8453 82.3547 31.816 82.696 32.712C83.0587 33.5867 83.5493 34.344 84.168 34.984C84.808 35.624 85.5547 36.1147 86.408 36.456C87.2613 36.7973 88.1893 36.968 89.192 36.968ZM109.184 41V18.6H114.368V36.776H125.6V41H109.184ZM132.336 41V18.6H142.512C144.944 18.6 147.088 19.0693 148.944 20.008C150.8 20.9253 152.251 22.216 153.296 23.88C154.342 25.544 154.864 27.5173 154.864 29.8C154.864 32.0613 154.342 34.0347 153.296 35.72C152.251 37.384 150.8 38.6853 148.944 39.624C147.088 40.5413 144.944 41 142.512 41H132.336ZM137.52 36.744H142.256C143.75 36.744 145.04 36.4667 146.128 35.912C147.238 35.336 148.091 34.5253 148.688 33.48C149.307 32.4347 149.616 31.208 149.616 29.8C149.616 28.3707 149.307 27.144 148.688 26.12C148.091 25.0747 147.238 24.2747 146.128 23.72C145.04 23.144 143.75 22.856 142.256 22.856H137.52V36.744ZM167.382 27.624H178.166V31.656H167.382V27.624ZM167.766 36.84H179.958V41H162.614V18.6H179.542V22.76H167.766V36.84ZM192.723 28.68H203.475V32.84H192.723V28.68ZM193.107 41H187.923V18.6H204.851V22.76H193.107V41ZM208.35 41L218.334 18.6H223.454L233.47 41H228.03L219.838 21.224H221.886L213.662 41H208.35ZM213.342 36.2L214.718 32.264H226.238L227.646 36.2H213.342ZM239.634 41V18.6H249.33C251.335 18.6 253.063 18.9307 254.514 19.592C255.965 20.232 257.085 21.16 257.874 22.376C258.663 23.592 259.058 25.0427 259.058 26.728C259.058 28.392 258.663 29.832 257.874 31.048C257.085 32.2427 255.965 33.16 254.514 33.8C253.063 34.44 251.335 34.76 249.33 34.76H242.514L244.818 32.488V41H239.634ZM253.874 41L248.274 32.872H253.81L259.474 41H253.874ZM244.818 33.064L242.514 30.632H249.042C250.642 30.632 251.837 30.2907 252.626 29.608C253.415 28.904 253.81 27.944 253.81 26.728C253.81 25.4907 253.415 24.5307 252.626 23.848C251.837 23.1653 250.642 22.824 249.042 22.824H242.514L244.818 20.36V33.064ZM274.365 41.384C272.573 41.384 270.856 41.1493 269.213 40.68C267.571 40.1893 266.248 39.56 265.245 38.792L267.005 34.888C267.965 35.5707 269.096 36.136 270.397 36.584C271.72 37.0107 273.053 37.224 274.397 37.224C275.421 37.224 276.243 37.128 276.861 36.936C277.501 36.7227 277.971 36.4347 278.269 36.072C278.568 35.7093 278.717 35.2933 278.717 34.824C278.717 34.2267 278.483 33.7573 278.013 33.416C277.544 33.0533 276.925 32.7653 276.157 32.552C275.389 32.3173 274.536 32.104 273.597 31.912C272.68 31.6987 271.752 31.4427 270.813 31.144C269.896 30.8453 269.053 30.4613 268.285 29.992C267.517 29.5227 266.888 28.904 266.397 28.136C265.928 27.368 265.693 26.3867 265.693 25.192C265.693 23.912 266.035 22.7493 266.717 21.704C267.421 20.6373 268.467 19.7947 269.853 19.176C271.261 18.536 273.021 18.216 275.133 18.216C276.541 18.216 277.928 18.3867 279.293 18.728C280.659 19.048 281.864 19.5387 282.909 20.2L281.309 24.136C280.264 23.5387 279.219 23.1013 278.173 22.824C277.128 22.5253 276.104 22.376 275.101 22.376C274.099 22.376 273.277 22.4933 272.637 22.728C271.997 22.9627 271.539 23.272 271.261 23.656C270.984 24.0187 270.845 24.4453 270.845 24.936C270.845 25.512 271.08 25.9813 271.549 26.344C272.019 26.6853 272.637 26.9627 273.405 27.176C274.173 27.3893 275.016 27.6027 275.933 27.816C276.872 28.0293 277.8 28.2747 278.717 28.552C279.656 28.8293 280.509 29.2027 281.277 29.672C282.045 30.1413 282.664 30.76 283.133 31.528C283.624 32.296 283.869 33.2667 283.869 34.44C283.869 35.6987 283.517 36.8507 282.813 37.896C282.109 38.9413 281.053 39.784 279.645 40.424C278.259 41.064 276.499 41.384 274.365 41.384Z" fill="#087443"/>
<path d="M89.128 69.192C87.4427 69.192 85.8747 68.9147 84.424 68.36C82.9947 67.784 81.7467 66.984 80.68 65.96C79.6347 64.9147 78.8133 63.7093 78.216 62.344C77.64 60.9573 77.352 59.4427 77.352 57.8C77.352 56.1573 77.64 54.6533 78.216 53.288C78.8133 51.9013 79.6347 50.696 80.68 49.672C81.7467 48.6267 82.9947 47.8267 84.424 47.272C85.8533 46.696 87.4213 46.408 89.128 46.408C90.8133 46.408 92.3707 46.696 93.8 47.272C95.2293 47.8267 96.4667 48.616 97.512 49.64C98.5787 50.664 99.4 51.8693 99.976 53.256C100.573 54.6427 100.872 56.1573 100.872 57.8C100.872 59.4427 100.573 60.9573 99.976 62.344C99.4 63.7307 98.5787 64.936 97.512 65.96C96.4667 66.984 95.2293 67.784 93.8 68.36C92.3707 68.9147 90.8133 69.192 89.128 69.192ZM89.128 67.08C90.472 67.08 91.7093 66.856 92.84 66.408C93.992 65.9387 94.984 65.288 95.816 64.456C96.6693 63.6027 97.3307 62.6213 97.8 61.512C98.2693 60.3813 98.504 59.144 98.504 57.8C98.504 56.456 98.2693 55.2293 97.8 54.12C97.3307 52.9893 96.6693 52.008 95.816 51.176C94.984 50.3227 93.992 49.672 92.84 49.224C91.7093 48.7547 90.472 48.52 89.128 48.52C87.784 48.52 86.536 48.7547 85.384 49.224C84.232 49.672 83.2293 50.3227 82.376 51.176C81.544 52.008 80.8827 52.9893 80.392 54.12C79.9227 55.2293 79.688 56.456 79.688 57.8C79.688 59.1227 79.9227 60.3493 80.392 61.48C80.8827 62.6107 81.544 63.6027 82.376 64.456C83.2293 65.288 84.232 65.9387 85.384 66.408C86.536 66.856 87.784 67.08 89.128 67.08ZM106.18 69V46.6H114.564C116.462 46.6 118.094 46.9093 119.46 47.528C120.825 48.1253 121.87 49 122.596 50.152C123.342 51.2827 123.716 52.6587 123.716 54.28C123.716 55.8587 123.342 57.224 122.596 58.376C121.87 59.5067 120.825 60.3813 119.46 61C118.094 61.6187 116.462 61.928 114.564 61.928H107.492L108.548 60.808V69H106.18ZM108.548 61L107.492 59.848H114.5C116.74 59.848 118.436 59.368 119.588 58.408C120.761 57.4267 121.348 56.0507 121.348 54.28C121.348 52.488 120.761 51.1013 119.588 50.12C118.436 49.1387 116.74 48.648 114.5 48.648H107.492L108.548 47.528V61ZM135.324 69.192C133.66 69.192 132.06 68.9253 130.524 68.392C129.01 67.8373 127.836 67.1333 127.004 66.28L127.932 64.456C128.722 65.224 129.778 65.8747 131.1 66.408C132.444 66.92 133.852 67.176 135.324 67.176C136.732 67.176 137.874 67.0053 138.748 66.664C139.644 66.3013 140.295 65.8213 140.7 65.224C141.127 64.6267 141.34 63.9653 141.34 63.24C141.34 62.3653 141.084 61.6613 140.572 61.128C140.082 60.5947 139.431 60.1787 138.62 59.88C137.81 59.56 136.914 59.2827 135.932 59.048C134.951 58.8133 133.97 58.568 132.988 58.312C132.007 58.0347 131.1 57.672 130.268 57.224C129.458 56.776 128.796 56.1893 128.284 55.464C127.794 54.7173 127.548 53.7467 127.548 52.552C127.548 51.4427 127.836 50.4293 128.412 49.512C129.01 48.5733 129.916 47.8267 131.132 47.272C132.348 46.696 133.906 46.408 135.804 46.408C137.063 46.408 138.311 46.5893 139.548 46.952C140.786 47.2933 141.852 47.7733 142.748 48.392L141.948 50.28C140.988 49.64 139.964 49.1707 138.876 48.872C137.81 48.5733 136.775 48.424 135.772 48.424C134.428 48.424 133.319 48.6053 132.444 48.968C131.57 49.3307 130.919 49.8213 130.492 50.44C130.087 51.0373 129.884 51.72 129.884 52.488C129.884 53.3627 130.13 54.0667 130.62 54.6C131.132 55.1333 131.794 55.5493 132.604 55.848C133.436 56.1467 134.343 56.4133 135.324 56.648C136.306 56.8827 137.276 57.1387 138.236 57.416C139.218 57.6933 140.114 58.056 140.924 58.504C141.756 58.9307 142.418 59.5067 142.908 60.232C143.42 60.9573 143.676 61.9067 143.676 63.08C143.676 64.168 143.378 65.1813 142.78 66.12C142.183 67.0373 141.266 67.784 140.028 68.36C138.812 68.9147 137.244 69.192 135.324 69.192ZM150.884 63.432L150.788 60.552L164.356 46.6H167.076L157.188 56.968L155.844 58.408L150.884 63.432ZM148.836 69V46.6H151.204V69H148.836ZM164.932 69L155.268 57.864L156.868 56.136L167.748 69H164.932ZM171.586 69V46.6H179.97C181.869 46.6 183.501 46.9093 184.866 47.528C186.231 48.1253 187.277 49 188.002 50.152C188.749 51.2827 189.122 52.6587 189.122 54.28C189.122 55.8587 188.749 57.224 188.002 58.376C187.277 59.5067 186.231 60.3813 184.866 61C183.501 61.5973 181.869 61.896 179.97 61.896H172.898L173.954 60.808V69H171.586ZM186.882 69L181.122 60.872H183.682L189.474 69H186.882ZM173.954 61L172.898 59.88H179.906C182.146 59.88 183.842 59.3893 184.994 58.408C186.167 57.4267 186.754 56.0507 186.754 54.28C186.754 52.488 186.167 51.1013 184.994 50.12C183.842 49.1387 182.146 48.648 179.906 48.648H172.898L173.954 47.528V61ZM194.711 69V46.6H197.079V69H194.711ZM206.479 57.448H218.319V59.496H206.479V57.448ZM206.735 69H204.367V46.6H219.727V48.648H206.735V69ZM229.125 69V48.648H221.253V46.6H239.365V48.648H231.493V69H229.125ZM245.26 56.616H257.1V58.632H245.26V56.616ZM245.516 66.952H258.988V69H243.148V46.6H258.508V48.648H245.516V66.952ZM264.555 69V46.6H272.939C274.837 46.6 276.469 46.9093 277.835 47.528C279.2 48.1253 280.245 49 280.971 50.152C281.717 51.2827 282.091 52.6587 282.091 54.28C282.091 55.8587 281.717 57.224 280.971 58.376C280.245 59.5067 279.2 60.3813 277.835 61C276.469 61.5973 274.837 61.896 272.939 61.896H265.867L266.923 60.808V69H264.555ZM279.851 69L274.091 60.872H276.651L282.443 69H279.851ZM266.923 61L265.867 59.88H272.875C275.115 59.88 276.811 59.3893 277.963 58.408C279.136 57.4267 279.723 56.0507 279.723 54.28C279.723 52.488 279.136 51.1013 277.963 50.12C276.811 49.1387 275.115 48.648 272.875 48.648H265.867L266.923 47.528V61Z" fill="#087443"/>
</svg>
